<svg width="100" height="100" viewBox="0 0 100 100" fill="none" xmlns="http://www.w3.org/2000/svg">
<g clip-path="url(#clip0_13_60)">
<path d="M19.9264 64.624C19.4738 63.3841 18.5609 62.803 17.6241 62.7382C16.882 62.2293 15.9103 62.0072 14.8524 62.2658C12.2567 62.9007 11.3163 65.8282 11.5978 68.2102C11.9368 71.0788 14.8017 72.5912 17.3958 71.2332C19.7292 70.0119 20.8155 67.0645 19.9264 64.624Z" fill="white"/>
<path d="M30.5798 61.2086C28.4889 59.0269 25.1891 59.4814 23.3783 62.0829C21.7694 64.3954 20.8977 68.6084 21.5316 71.3654C22.338 74.8697 26.2666 75.6995 28.425 72.8667C30.4634 70.1918 31.3777 66.733 31.6523 63.4376C31.7433 62.351 31.2626 61.6356 30.5798 61.2086Z" fill="white"/>
<path d="M42.0019 64.8636C41.81 63.5607 40.7683 62.9687 39.6477 62.9125C39.1266 62.5939 38.5253 62.3913 37.8543 62.4147C36.0298 62.4781 34.8893 64.1002 34.1204 65.5616C32.6303 68.3937 30.6347 73.0348 32.0068 76.2188C32.653 77.7196 34.1199 78.7008 35.7777 78.4859C37.5144 78.2606 38.6809 76.7469 39.6253 75.4079C41.7926 72.3346 42.5435 68.5454 42.0019 64.8636Z" fill="white"/>
<path d="M50.1405 72.9878C49.9889 72.7371 49.7951 72.5361 49.5814 72.3645C47.9864 70.7151 45.7391 70.3335 43.7838 72.0411C41.9177 73.6711 40.8751 77.295 41.5616 79.6742C42.463 82.7985 46.1417 82.9476 48.1901 80.8869C50.1387 78.9275 51.7006 75.568 50.1405 72.9878Z" fill="white"/>
<path d="M83.4208 56.3342C86.8039 47.4907 73.4788 41.2905 67.3921 37.8315C62.9659 35.3159 56.916 31.0203 51.6117 29.7455C50.7631 29.1252 49.6122 28.8164 48.5566 28.8891C48.075 28.6767 47.5536 28.5663 47.0794 28.6929C45.6129 29.0852 44.4696 29.9302 43.24 30.7811C42.4613 31.3199 41.5466 31.8753 40.8492 32.5829C39.0636 32.7589 37.417 34.2342 38.1146 36.4363C39.6015 41.1349 39.5802 49.9676 31.9531 47.283C25.4681 45.0006 26.1155 38.0604 26.9316 32.6996C27.178 31.0821 26.2479 29.1111 24.297 29.241C14.6966 29.8805 5.92578 35.1397 1.86009 44.0853C-1.25284 50.9352 -1.07826 61.6639 7.21841 64.5172C7.45967 64.6001 7.69259 64.5455 7.92296 64.5003C8.99263 65.3545 10.6636 64.3934 10.8391 62.9989C10.9076 62.4568 13.7756 61.6118 14.2139 61.5229C14.9254 61.3784 18.0346 60.9239 18.531 61.6296C19.8125 63.452 22.4335 62.4455 22.6365 60.7625C25.3378 57.8498 29.3998 56.0555 31.615 60.678C32.5905 62.7136 34.9824 62.1605 35.9808 60.6477C40.1115 60.4303 43.4044 62.5157 43.4433 67.2736C43.4493 68.0122 43.7737 68.4857 44.2106 68.7635C44.5076 69.2673 45.0767 69.6044 45.8528 69.4343C54.8448 67.4653 48.9609 79.2116 52.3817 82.8047C54.6836 85.2223 57.9561 83.8202 58.8195 80.9434C59.9452 77.1947 59.8141 72.183 57.3522 69.0307C54.9878 66.0034 51.4137 64.1373 48.2709 61.8331C50.965 62.041 57.2649 66.8407 57.8905 67.4352C59.524 68.9888 60.2072 70.459 60.452 72.593C60.6302 74.1487 60.3075 75.4913 60.9393 76.9984C62.2452 80.1145 66.033 80.5436 68.0117 77.7344C70.3538 74.4101 69.4729 68.2345 66.8589 65.3586C64.9312 63.2369 62.0393 61.6595 59.7287 60.0468C56.9137 58.083 54.0592 56.1666 51.1664 54.3178C51.3862 53.4526 52.1794 52.6717 53.71 51.9998C54.494 52.4466 55.2391 52.95 55.9471 53.5096C57.6359 54.7082 59.2716 56.0103 60.9271 57.2553C63.021 58.8299 65.6114 60.3101 67.3877 62.2191C69.9788 65.0046 69.3657 66.9448 70.2409 70.1624C71.1167 73.3812 73.8771 75.2452 76.4135 72.0564C79.3488 68.3655 78.0937 60.058 75.1424 56.7762C72.649 54.0034 68.8767 52.0414 65.8346 49.9847C62.0868 47.4506 58.2341 45.0944 54.3481 42.7795C56.4233 41.3301 63.4445 46.4831 64.5758 47.2837C68.5336 50.0848 72.4462 52.6874 75.4874 56.5227C77.6524 59.2536 79.7765 61.3004 82.9475 58.5382C83.4891 58.0661 83.6606 57.208 83.4761 56.5387L83.4208 56.3342Z" fill="white"/>
<path d="M78.9209 31.065C74.9265 28.2336 70.671 25.7134 66.4965 23.2705C61.7812 20.5116 56.5337 16.8219 51.0036 16.0532C45.4842 15.2859 30.9294 19.3004 30.6333 26.4033C30.2274 26.6436 29.8908 27.0109 29.7266 27.5258C28.3291 31.9089 24.8893 47.0591 33.6872 46.6245C38.3509 46.3941 38.1388 40.1664 36.7024 35.3795C37.3762 33.4872 38.4949 31.9649 40.503 30.5736C42.0144 29.5267 43.6518 28.5876 45.2026 27.5489C53.1599 29.2648 60.2132 31.1312 67.6542 35.1411C70.4666 36.6569 73.2811 38.2216 75.8728 40.0998C79.5606 42.7723 95.2776 56.9186 81.6972 61.4427C81.1242 61.6337 80.759 61.9931 80.5018 62.4038C79.9873 62.5131 79.5227 62.796 79.4016 63.4339C78.4815 68.2747 82.4777 69.7845 86.6946 69.1402C93.0485 68.1689 98.4119 64.3197 99.68 57.8209C102.081 45.512 90.5477 33.8348 78.9209 31.065Z" fill="white"/>
</g>
<defs>
<clipPath id="clip0_13_60">
<rect width="100" height="100" fill="white"/>
</clipPath>
</defs>
</svg>
