<svg width="93" height="102" viewBox="0 0 93 102" fill="none" xmlns="http://www.w3.org/2000/svg">
<path d="M92.0009 88.1858L79.3106 59.7297C83.7958 53.576 86.4294 46.1081 86.4294 38.0639C86.4294 17.0754 68.5172 0 46.4999 0C24.483 0 6.57056 17.0754 6.57056 38.0637C6.57056 46.1081 9.20418 53.5756 13.6894 59.7293L0.999051 88.1856C0.391535 89.5477 0.496863 90.8551 1.28828 91.7729C2.07971 92.6907 3.40529 93.042 4.9244 92.7379L14.6162 90.7956C15.7619 90.5659 17.3715 91.2181 17.9932 92.164L23.2506 100.165C24.0239 101.341 25.1143 102 26.2721 102C26.3486 102 26.4255 101.997 26.5026 101.991C27.7452 101.898 28.8058 101.063 29.4136 99.7008L40.1428 75.6428C42.2136 75.96 44.3365 76.1271 46.4999 76.1271C48.6633 76.1271 50.7861 75.96 52.857 75.6428L63.5864 99.7008C64.1939 101.063 65.2549 101.898 66.4976 101.991C66.5747 101.997 66.6516 102 66.7281 102C67.8854 102 68.9763 101.341 69.7493 100.165L75.0065 92.164C75.6285 91.2179 77.2379 90.5651 78.3839 90.7954L88.0754 92.7377C89.5949 93.0418 90.9203 92.6905 91.7117 91.7727C92.5029 90.8551 92.6084 89.5477 92.0009 88.1858ZM10.5946 88.2888L4.22472 89.5654C4.16871 89.5768 4.11814 89.5851 4.07279 89.5909C4.08783 89.5499 4.10581 89.5042 4.12859 89.4538L16.0695 62.6781C17.3489 64.1133 18.7374 65.4574 20.2231 66.6983L10.5946 88.2888ZM14.6275 87.5316L22.9798 68.8025C24.6427 69.9619 26.4017 71.003 28.2449 71.9101L20.3023 89.7202C18.9267 88.2514 16.6783 87.3796 14.6275 87.5316ZM26.284 98.4326C26.2617 98.483 26.2399 98.5272 26.219 98.5661C26.1921 98.5308 26.1632 98.4904 26.1329 98.4442L22.5434 92.9814L31.3331 73.2719C33.0789 73.958 34.886 74.5296 36.7449 74.9764L26.284 98.4326ZM46.4999 72.8856C26.3578 72.8856 9.97115 57.2647 9.97115 38.0639C9.97115 18.863 26.358 3.24168 46.4999 3.24168C66.6418 3.24168 83.029 18.8628 83.029 38.0639C83.029 57.2649 66.6422 72.8856 46.4999 72.8856ZM66.867 98.444C66.8367 98.4904 66.8079 98.5306 66.7809 98.5659C66.76 98.527 66.7383 98.4826 66.7159 98.4324L56.2552 74.976C58.1142 74.5296 59.9212 73.9576 61.6671 73.2715L70.4568 92.981L66.867 98.444ZM72.6977 89.7202L64.755 71.9101C66.5983 71.003 68.3571 69.9619 70.02 68.8027L78.3727 87.5314C76.3215 87.3786 74.0734 88.251 72.6977 89.7202ZM88.7748 89.5654L82.4052 88.2888L72.7763 66.6985C74.2626 65.4578 75.6506 64.1135 76.93 62.6783L88.871 89.454C88.8937 89.5042 88.9117 89.5499 88.9266 89.5911C88.8816 89.5851 88.831 89.577 88.7748 89.5654Z" fill="black"/>
<path d="M46.4999 17.5507C34.6346 17.5507 24.9814 26.7528 24.9814 38.0636C24.9814 49.3745 34.6346 58.5764 46.4999 58.5764C58.3654 58.5764 68.0186 49.3745 68.0186 38.0636C68.0186 26.7528 58.3654 17.5507 46.4999 17.5507ZM46.4999 55.3349C36.5096 55.3349 28.382 47.5871 28.382 38.0638C28.382 28.5404 36.5096 20.7926 46.4999 20.7926C56.4902 20.7926 64.6182 28.5404 64.6182 38.0638C64.6182 47.5869 56.4904 55.3349 46.4999 55.3349Z" fill="black"/>
<path d="M46.4999 9.13794C29.7682 9.13794 16.1562 22.1138 16.1562 38.0636C16.1562 54.0133 29.7682 66.9892 46.4999 66.9892C63.2316 66.9892 76.8439 54.0133 76.8439 38.0636C76.8439 22.1138 63.2316 9.13794 46.4999 9.13794ZM46.4999 63.7475C31.6432 63.7475 19.5566 52.2259 19.5566 38.0634C19.5566 23.9012 31.6432 12.3792 46.4999 12.3792C61.3566 12.3792 73.4434 23.901 73.4434 38.0634C73.4434 52.2259 61.3566 63.7475 46.4999 63.7475Z" fill="black"/>
</svg>
