<svg width="96" height="91" viewBox="0 0 96 91" fill="none" xmlns="http://www.w3.org/2000/svg">
<path d="M45.4131 0V14.4404H50.5874V0H45.4126H45.4131ZM24.2843 4.33956L20.0449 7.15321L28.7812 18.9791L33.0182 16.1654L24.2843 4.33956ZM71.7152 4.33956L62.9815 16.1655L67.2192 18.9792L75.9553 7.15321L71.7159 4.33956H71.7152ZM47.9992 18.3914C35.341 18.3914 25.0797 25.6777 25.0797 34.6671L38.1015 72.049H57.8991L70.9197 34.6671C70.9197 25.6778 60.6591 18.3914 48.0004 18.3914H47.9992ZM6.83726 22.7252L5.06934 27.3369L19.3773 32.2747L21.1517 27.6652L6.83694 22.7252H6.83726ZM89.1622 22.7252L74.8473 27.6656L76.6158 32.2757L90.9307 27.337L89.1622 22.7252ZM20.4605 43.8075L5.74854 47.548L7.08342 52.2824L21.7954 48.5472L20.4608 43.8075H20.4605ZM75.5389 43.8075L74.205 48.5471L88.917 52.2817L90.2509 47.5473L75.5389 43.8073V43.8075ZM37.8129 74.7741V81.2719H58.1878V74.7751H37.8129L37.8129 74.7741ZM37.8129 84.5021V91H58.1878V84.5032H37.8129L37.8129 84.5021Z" fill="black"/>
</svg>
